<svg width="120" height="120" viewBox="0 0 120 120" fill="none" xmlns="http://www.w3.org/2000/svg">
  <g stroke="currentColor" stroke-width="3.5" fill="none">
    {/* Geometric Kawung & Location Pin motif */}
    <path d="M60 0 C85 25 85 35 60 60 C35 35 35 25 60 0 Z" />
    <path d="M60 120 C85 95 85 85 60 60 C35 85 35 95 60 120 Z" />
    <path d="M0 60 C25 35 35 35 60 60 C35 85 25 85 0 60 Z" />
    <path d="M120 60 C95 35 85 35 60 60 C85 85 95 85 120 60 Z" />
    
    {/* Central Pin Circle */}
    <circle cx="60" cy="60" r="10" />
    
    {/* Corner Pin Circles for Seamless Tiling */}
    <circle cx="0" cy="0" r="10" />
    <circle cx="120" cy="0" r="10" />
    <circle cx="0" cy="120" r="10" />
    <circle cx="120" cy="120" r="10" />

    {/* Diamond outline connector */}
    <path d="M60 18 L102 60 L60 102 L18 60 Z" stroke-dasharray="4 4" stroke-width="2" />
  </g>
</svg>
